<?xml version="1.0" encoding="utf-8"?>
<svg xmlns="http://www.w3.org/2000/svg" width="1046" height="1003" viewBox="0 0 1046 1003">
  <g>
    <path d="M 571.503 964.57 C 554.681 966.421 509.374 967.211 492.002 965.941 C 454.191 963.191 411.766 954.682 375.675 942.602 C 315.894 922.592 262.214 891.733 214.853 850.141 C 199.413 836.581 174.286 810.925 162.476 796.665 C 100.004 721.202 63.392 630.485 55.932 532.702 C 54.392 512.56 55.241 464.294 57.431 447.002 C 63.261 401.071 71.912 366.25 87.261 326.999 C 95.082 307.017 113.486 270.447 124.897 252.237 C 196.499 137.964 312.409 59.123 442.013 36.542 C 568.097 14.582 697.771 44.894 798.384 119.846 C 911.798 204.339 979.39 326.394 990.07 465.998 C 991.58 485.779 990.761 530.766 988.55 548.998 C 981.66 605.909 968.311 652.348 944.91 700.83 C 934.19 723.03 928.584 733.034 916.204 751.994 C 838.059 871.766 713.627 948.641 572.346 964.477 L 571.503 964.57 Z M 396.902 836.536 L 396.902 836.539 L 401.492 836.91 C 454.746 841.21 512.863 830.899 563.006 808.248 C 581.696 799.808 594.151 792.93 611.501 781.489 C 683.165 734.247 734.1 662.825 754.492 580.99 C 759.812 559.629 763.959 530.057 763.99 513.353 L 763.997 508.378 L 764 506.23 L 755.13 497.79 C 734.296 477.966 713.597 465.409 686.102 455.908 C 668.965 449.991 657.236 447.911 636.496 447.11 C 616.138 446.436 613.619 445.501 609.888 438.786 C 607.522 433.953 607.842 429.623 610.858 425.202 C 615.885 418.61 660.859 403.235 683.59 399.673 L 695.265 397.844 L 685.811 390.738 C 685.374 390.41 684.922 390.068 684.449 389.709 C 646.512 360.947 590.933 355.076 544.86 374.952 C 539.694 377.184 534.017 378.999 532.2 378.999 C 528.453 378.999 525.026 377.673 522.792 375.147 C 520.305 372.868 519 369.391 519 365.579 C 519 361.985 520.22 358.53 524.594 349.811 C 535.467 328.135 546.137 313.011 561.52 297.68 C 562.098 297.102 562.666 296.529 563.204 295.981 L 570.946 288.093 L 559.91 287.486 C 558.208 287.392 556.221 287.265 553.98 287.12 C 520.546 284.95 485.676 289.791 450.455 301.491 C 421.333 311.172 393.489 324.721 368.807 341.211 C 362.397 345.495 356.185 349.014 354.086 349.628 C 351.797 349.916 349.128 349.393 346.712 348.081 C 344.186 346.907 341.924 345.077 340.594 342.893 C 339.56 341.013 338.73 337.97 338.73 335.938 C 338.73 327.689 356.811 287.986 368.544 270.493 C 416.159 199.466 499.546 151.528 594.01 140.858 C 610.713 138.968 655.129 139.219 671.588 141.288 C 720.726 147.483 767.732 162.921 812.083 187.377 L 848.512 207.464 L 817.877 179.314 C 811.741 173.676 805.586 168.201 801.01 164.386 C 743.128 116.114 677.551 85.117 602.499 70.546 C 539.198 58.247 467.599 61.548 404.997 79.648 C 338.625 98.839 283.401 129.588 230.749 176.659 C 169.587 231.341 122.911 308.08 102.15 388.063 C 76.659 486.305 85.804 581.97 128.077 659.506 C 183.63 761.382 285.628 827.556 401.514 836.907 L 396.902 836.536 Z M 439.66 680.454 C 403.298 686.757 364.611 673.425 337.911 645.343 C 325.706 632.507 317.275 618.497 311.582 601.54 C 300.155 567.47 307.29 525.827 329.531 497.012 C 335.836 488.836 349.501 476.05 357.669 470.675 C 376.88 458.04 399.271 451.532 421.47 451.457 C 443.666 451.189 465.662 457.328 484.181 469.673 C 515.645 490.672 534.776 523.894 536.687 561.022 C 538.748 601.052 519.377 639.543 485.771 662.044 C 470.668 672.155 458.077 677.211 440.049 680.387 L 439.66 680.454 Z M 490.435 932.389 C 502.298 933.419 549.914 932.159 560.01 930.559 C 624.315 920.349 681.543 891.307 727.596 845.514 C 766.679 806.651 794.41 756.816 807.451 701.992 C 811.726 684.029 814.496 661.724 814.939 644.171 L 815.659 615.653 L 805.286 642.222 C 775.086 719.575 714.168 789.451 638.391 833.114 C 596.709 857.115 546.906 874.27 500.993 880.431 C 424.474 890.695 349.854 879.304 280.411 846.804 L 275.44 855.438 C 275.534 855.503 275.627 855.568 275.715 855.629 C 339.588 899.81 411.342 925.502 490.005 932.372 L 490.435 932.389 Z M 729.271 883.48 L 763.181 860.57 C 787.888 843.878 813.807 822.3 834.453 800.888 C 866.454 767.697 892.491 730.939 911.932 691.497 L 921.173 672.753 L 921.79 671.501 L 920.881 661.002 C 919.68 646.989 915.531 624.31 911.4 609.228 C 896.518 554.811 863.895 509.727 816.989 478.713 C 804.196 470.251 777.887 457.25 765.032 453.028 C 761.046 451.718 756.322 450.329 751.58 449.035 L 723.324 441.322 L 747.418 457.969 C 759.419 466.261 770.579 475.823 781.263 486.973 C 812.268 519.328 831.581 559.926 838.641 607.521 C 841.081 623.936 841.059 660.432 838.619 678.006 C 829.572 742.939 800.762 804.151 756.663 853.085 L 729.271 883.48 Z M 957.105 544.428 L 957.105 525.525 C 957.915 508.746 958.012 481.087 957.07 468.997 C 954.161 431.642 950.208 411.658 942.302 394.334 C 912.358 328.706 855.821 280.928 787.482 263.446 C 764.679 257.616 755.196 256.5 728.996 256.53 C 725.553 256.532 722.348 256.559 719.357 256.618 L 718.783 266.571 C 767.45 273.052 812.863 296.158 847.639 332.27 C 874.992 360.673 897.72 399.024 911.021 439.216 C 915.401 452.437 922.428 479.796 923.489 487.812 C 924.19 492.486 925.355 494.681 930.403 501.335 C 936.087 508.872 942.578 518.891 947.76 527.999 L 957.105 544.428 Z M 891.977 458.75 L 884.821 441.905 C 881.107 433.161 875.466 420.539 870.999 411.448 C 842.867 354.163 799.052 315.018 744.69 298.594 C 726.374 293.052 716.006 291.61 694.494 291.58 C 669.032 291.539 650.656 294.732 630.488 302.684 C 628.758 303.366 626.802 304.191 624.805 305.07 L 601.48 315.331 L 626.945 314.645 C 647.154 314.1 667.857 317.138 687.868 323.633 C 699.355 327.365 722.293 339.124 732.957 346.746 C 751.08 359.698 770.68 380.674 779.643 396.7 C 781.262 399.446 781.138 398.874 781.045 398.569 L 782.364 402.917 L 784.719 403.562 C 793.864 406.067 814.437 413.099 822.68 416.55 C 839.929 423.785 861.291 436.107 877.253 447.886 L 891.977 458.75 Z M 868.6 259.062 C 866.053 256.764 863.623 254.642 861.499 252.869 C 805.167 205.857 742.464 177.482 672.504 167.311 C 657.268 165.101 611.097 164.821 594.494 166.841 C 565.887 170.313 538.811 177.244 513.01 187.736 L 516.194 197.195 C 542.073 190.223 568.218 186.917 596.499 186.911 C 608.598 186.921 622.998 187.401 628.504 187.981 C 671.316 192.461 707.235 203.248 746.857 223.489 C 762.425 231.45 764.167 232.091 775.02 233.954 C 796.753 237.655 824.693 246.778 843.805 256.398 C 849.803 259.424 856.147 263.025 862.622 267.028 L 868.6 259.062 Z M 499.102 240.06 C 512.422 237.76 525.286 236.785 540.005 236.76 C 565.753 236.731 589.683 240.181 615.285 247.622 L 625.714 250.652 L 627.361 251.13 L 637.431 247.13 C 649.796 242.225 667.097 237.132 680.341 234.247 L 699.096 230.162 L 680.733 224.579 C 657.981 217.662 639.656 214.536 613.497 212.939 C 575.379 210.583 532.596 217.264 496.533 230.438 L 499.102 240.06 Z M 675.425 763.751 L 682.346 770.672 L 685.862 767.573 C 739.552 720.25 778.411 657.521 795.383 587.948 L 795.62 586.979 C 798.968 573.298 800.202 567.979 799.351 562.887 C 798.744 559.963 797.524 557.301 795.492 553.101 L 788.434 538.51 L 786.046 554.542 C 785.631 557.33 785.123 560.474 784.579 563.599 C 772.118 635.283 739.066 699.003 686.344 753.015 C 683.958 755.455 681.561 757.835 679.089 760.218 L 675.425 763.751 Z M 866.516 472.144 L 866.516 485.253 L 868.033 486.721 C 900.252 517.889 923.237 555.862 935.865 599.275 L 941.068 617.163 L 947 593.04 L 943.55 583.011 C 936.409 562.26 929.164 546.916 918.742 530.504 C 906.696 511.458 891.664 494.056 874.796 479.359 L 866.516 472.144 Z M 729.501 396.452 L 749.944 398.007 L 740.671 388.521 C 739.404 387.225 737.929 385.742 736.251 384.073 C 724.783 372.625 712.811 363.611 699.858 356.874 L 694.827 365.501 C 695.97 366.247 697.009 366.951 698.005 367.656 C 703.23 371.36 712.452 379.355 718.502 385.425 L 728.189 395.138 L 729.501 396.452 Z M 224.313 520.642 C 220.107 522.342 219.239 522.311 214.425 520.106 C 210.805 518.417 208.11 515.896 207.096 512.823 C 205.69 509.912 205.903 506.345 207.334 502.731 C 208.443 500.22 210.054 498.19 212.289 497.033 C 214.417 495.64 217.22 495.027 220.379 494.999 C 224.764 495.048 225.931 495.379 228.541 498.34 C 230.373 500.08 232.019 502.706 232.565 504.412 C 233.29 507.71 232.92 511.107 231.335 513.918 C 230.019 516.865 227.448 519.252 224.313 520.643 L 224.313 520.642 Z M 368.178 786.335 C 365.446 788.815 362.319 790.111 359.229 789.547 C 356.062 789.441 352.854 787.567 350.003 784.555 C 347.971 782.19 347.5 780.658 347.5 776.341 C 347.5 771.441 347.775 770.704 351.243 767.417 C 354.515 764.48 355.793 764.001 359.91 764.001 C 363.609 764.001 365.414 764.583 367.88 766.547 C 370.988 769.297 372.791 772.731 372.603 776.225 C 372.89 779.719 371.203 783.323 368.179 786.335 L 368.178 786.335 Z M 270.486 253.339 C 268.332 252.714 266.477 251.07 265.277 249.092 C 263.915 247.221 263.107 244.86 263.328 242.592 C 263.2 240.444 264.295 238.226 266.335 236.226 C 269.66 233.214 273.124 232.609 277.292 234.349 C 279.449 235.263 281.067 236.236 281.751 237.773 C 282.758 239.132 283.003 240.724 282.994 243.343 C 282.958 247.414 280.909 250.876 277.405 252.841 C 274.818 254.034 272.33 254.234 270.486 253.34 L 270.486 253.339 Z M 352 434 C 350.103 434 348.354 433.438 347.033 432.319 C 345.587 431.356 344.496 429.861 343.888 428.223 C 343.141 426.643 342.833 424.824 343.161 423.127 C 343.236 421.513 344.087 419.94 345.451 418.45 C 347.477 416.643 350.023 415.608 352.452 415.824 C 354.846 415.637 357.21 416.794 358.974 418.687 C 360.486 420.754 361.334 422.897 360.991 424.973 C 361.041 427.023 359.876 429.184 358.059 431.101 C 355.989 433.081 354.038 433.999 352 433.999 L 352 434 Z M 204.6 673.6 C 202.777 675.473 201.374 676.705 199.843 676.759 C 198.434 677.322 196.839 676.557 194.739 675.419 C 191.085 673.334 190 670.962 190 666.74 C 190 664.56 190.686 662.666 192.018 661.401 C 193.153 659.945 194.927 659.028 196.761 658.724 C 198.553 658.23 200.565 658.318 202.259 659.142 C 203.952 659.649 205.4 661.076 206.562 663.113 C 207.667 665.288 208.337 667.016 207.798 668.57 C 207.693 670.242 206.481 671.787 204.6 673.599 L 204.6 673.6 Z M 514.614 716.025 L 514.615 716.024 L 507.775 708.736 C 507.775 708.736 507.775 708.736 507.775 708.736 C 507.775 708.736 507.531 708.966 507.531 708.966 L 514.614 716.025 Z M 502.47 711.524 C 500.797 711.896 499.279 711.312 497.198 709.933 C 494.138 707.861 493.468 707.055 493.2 703.27 C 492.92 699.903 493.409 698.356 495.049 696.439 C 497.57 693.954 500.544 692.685 503.122 693.37 C 505.771 693.389 508.092 695.45 509.575 698.509 C 510.431 700.64 510.844 702.528 510.391 704.167 C 510.259 705.848 509.201 707.346 507.67 708.832 C 505.849 710.493 504.188 711.588 502.472 711.523 L 502.47 711.524 Z M 165.174 329.986 C 165.283 329.873 165.389 329.761 165.493 329.648 L 165.174 329.986 C 165.103 330.059 165.032 330.133 164.959 330.206 L 165.116 330.047 C 163.712 331.522 161.872 332.495 160.379 332.886 C 158.056 332.568 156.07 331.735 154.658 330.013 C 152.941 328.434 152.002 326.106 152.002 323.78 C 152.002 322.123 152.521 320.623 153.587 319.594 C 154.477 318.399 155.89 317.586 157.389 317.223 C 158.843 316.709 160.5 316.616 161.98 317.093 C 163.398 317.303 164.738 318.256 165.964 319.669 C 167.393 321.563 168.275 323.288 167.878 324.933 C 167.971 326.453 167.003 328.017 165.495 329.648 L 166.46 328.627 L 166.52 328.627 L 165.118 330.048 C 165.126 330.04 165.133 330.032 165.141 330.024 L 165.174 329.986 Z M 610.333 717.959 C 608.811 719.116 606.84 720 605.82 720 C 604.315 720 602.537 718.925 601.303 717.339 C 599.911 715.862 599 713.838 599 712.12 C 599 710.373 599.905 708.502 601.424 707.262 C 602.778 705.836 604.764 705 606.63 705 C 608.167 705 609.56 705.473 610.497 706.469 C 611.604 707.287 612.346 708.604 612.663 709.996 C 613.133 711.344 613.207 712.884 612.748 714.256 C 612.553 715.567 611.657 716.806 610.334 717.959 L 610.333 717.959 Z M 641.472 573.921 C 640.261 574.27 638.957 574.081 637.891 573.499 C 636.745 573.102 635.719 572.255 635.116 571.113 C 634.344 570.081 634 568.687 634 567.139 C 634 564.829 634.084 563.036 635.288 562.31 C 635.987 561.086 637.768 560.999 640.04 560.999 C 641.636 560.999 643.018 561.413 644.124 562.1 C 645.231 562.788 646.157 563.709 646.559 564.853 C 647.153 565.908 647.337 567.213 646.974 568.428 C 646.834 569.683 646.182 570.984 644.999 571.999 L 643.616 573.186 C 642.931 573.602 642.193 573.845 641.471 573.92 L 641.472 573.921 Z M 420.977 114.687 C 419.807 115.116 418.548 115.019 417.564 114.469 C 416.482 114.155 415.531 113.326 415.007 112.189 C 414.299 111.163 414 109.751 414 108.139 C 414 105.816 414.078 104.013 415.3 103.298 C 416.013 102.076 417.816 101.999 420.14 101.999 C 421.752 101.999 423.164 102.298 424.19 103.006 C 425.327 103.53 426.155 104.481 426.471 105.565 C 427.021 106.549 427.117 107.805 426.688 108.977 C 426.518 110.092 425.712 111.328 424.537 112.563 C 423.31 113.727 422.088 114.517 420.977 114.687 Z M 564.07 411.656 C 562.637 412.202 561.02 411.601 559.321 410.524 C 557.937 409.324 556.987 407.91 557.052 406.42 C 556.708 404.927 557.23 403.358 558.183 401.796 C 559.814 400.284 561.848 399.494 563.68 400.057 C 565.672 400.136 567.694 401.468 569.042 403.359 C 569.689 404.478 570.312 405.177 569.907 405.921 C 570.091 406.715 569.328 407.432 568.38 408.698 L 568.333 408.76 C 567.008 410.424 565.541 411.591 564.07 411.655 L 564.07 411.656 Z" fill="rgb(19,33,74)"/>
    <path d="M 490 932.37 C 411.34 925.5 339.59 899.81 275.72 855.63 C 263.17 846.95 238.72 827.98 237.47 825.95 C 236.17 823.85 239.9 825.28 247 829.6 C 251.12 832.12 263.05 838.37 273.5 843.5 C 344.85 878.53 421.93 891.04 501 880.43 C 546.91 874.27 596.72 857.11 638.4 833.11 C 717.6 787.48 780.6 713.21 809.18 631.78 L 813.49 619.5 L 814.16 624.5 C 816.5 642.08 813.52 676.47 807.45 702 C 794.41 756.82 766.67 806.66 727.59 845.52 C 681.54 891.31 624.3 920.35 560 930.56 C 549.91 932.16 501.86 933.4 490 932.37 Z M 457.5 248.94 C 498.79 223.95 560.57 209.69 613.5 212.94 C 642.12 214.69 661.31 218.26 687.25 226.63 C 697.92 230.07 700.72 232 695.05 232 C 685.53 232 656.03 239.75 637.43 247.13 L 627.36 251.13 L 615.28 247.62 C 589.68 240.18 565.75 236.73 540 236.76 C 509.41 236.79 486.18 240.97 452.5 252.5 C 451.4 252.87 453.65 251.27 457.5 248.94 Z M 530.06 848.61 C 530.36 848.31 536.06 846.25 542.73 844.05 C 594.38 826.97 646.3 794.06 686.35 753.01 C 739.07 699 772.12 635.28 784.58 563.6 C 785.91 555.96 787 548.39 787 546.78 C 787 545.17 787.61 543.25 788.36 542.5 C 789.5 541.36 790.55 542.87 794.99 552.06 C 797.36 556.99 798.82 559.94 799.39 563.05 C 800.28 567.92 799 573.18 795.62 586.98 L 795.38 587.96 C 769.2 694.93 691.41 785.03 586.34 830.07 C 572.48 836 528.01 850.66 530.06 848.61 Z M 737.5 397.06 L 729.5 396.45 L 718.5 385.42 C 712.45 379.35 703.22 371.35 698 367.65 C 686.82 359.72 666.69 349.36 655.77 345.93 C 651.52 344.59 648.03 343.27 648.02 343 C 647.97 341.56 656.52 342.27 665.62 344.46 C 693.72 351.23 715.55 363.47 736.25 384.07 C 747.29 395.05 749.72 398.23 746.75 397.83 C 746.06 397.74 741.9 397.39 737.5 397.06 Z" fill="rgb(96,125,122)"/>
    <path d="M 738.63 871.63 C 792.86 820.31 828.4 751.48 838.62 678 C 841.06 660.43 841.08 623.92 838.64 607.51 C 831.58 559.92 812.26 519.32 781.26 486.97 C 765.72 470.74 749.07 457.76 730.75 447.58 C 727.04 445.52 724 443.6 724 443.33 C 724 441.93 749.82 448.03 765.04 453.03 C 777.89 457.25 804.21 470.26 817 478.72 C 863.9 509.73 896.52 554.82 911.4 609.23 C 915.53 624.31 919.68 646.99 920.88 661 L 921.79 671.5 L 911.93 691.5 C 892.49 730.94 866.45 767.7 834.45 800.89 C 805.94 830.45 767.41 860.26 735.5 877.44 L 728.5 881.21 L 738.63 871.63 Z M 951.61 535.08 C 946.23 524.6 937.65 510.94 930.4 501.33 C 925.26 494.51 924.08 492.21 923.49 487.81 C 922.43 479.8 915.4 452.43 911.02 439.21 C 897.72 399.02 874.98 360.66 847.63 332.26 C 811.59 294.83 764.11 271.35 713.5 265.92 C 702.02 264.69 673.16 265.25 665.25 266.87 C 657.19 268.51 661.02 266.28 670.76 263.66 C 691.84 258 703.55 256.56 729 256.53 C 755.2 256.5 764.7 257.62 787.5 263.45 C 855.83 280.93 912.37 328.73 942.31 394.35 C 950.21 411.66 954.16 431.64 957.07 469 C 958.29 484.63 957.73 526.96 956.16 537.5 L 955.42 542.5 L 951.61 535.08 Z M 883 452.29 C 866.85 439.34 842.14 424.71 822.68 416.55 C 814.44 413.1 793.32 405.88 784.38 403.47 C 783.77 403.3 781.64 400.26 779.65 396.71 C 770.7 380.69 751.07 359.69 732.95 346.74 C 722.29 339.12 699.34 327.36 687.86 323.63 C 665.26 316.29 641.73 313.34 619.22 315.02 C 611.27 315.61 604.57 315.91 604.34 315.67 C 603.67 315 620.6 306.59 630.5 302.68 C 650.66 294.73 669.04 291.54 694.5 291.58 C 716.01 291.61 726.4 293.06 744.71 298.6 C 799.06 315.02 842.87 354.17 871 411.45 C 878.4 426.52 889.49 454.22 888.81 455.92 C 888.64 456.35 886.03 454.71 883 452.29 Z M 904.01 297.82 C 889.44 284.02 864.31 266.73 843.81 256.4 C 824.7 246.78 796.73 237.65 775 233.95 C 764.21 232.11 762.48 231.47 746.86 223.49 C 707.24 203.25 671.31 192.46 628.5 187.98 C 623 187.4 608.6 186.92 596.5 186.91 C 547.85 186.89 505.05 196.66 460.83 217.88 C 454.32 221 449 223.32 449.01 223.03 C 449.02 221.67 475.07 205.8 488.5 198.97 C 521.82 182.02 556.76 171.43 594.5 166.84 C 611.1 164.82 657.27 165.1 672.5 167.31 C 742.46 177.48 805.17 205.86 861.5 252.87 C 873.48 262.87 894.47 283.47 903.42 294 C 914.67 307.25 914.79 308.03 904.01 297.82 Z M 936.7 602.19 C 920.09 542.38 883.83 492.35 831.5 457.02 C 820.33 449.48 799.69 438.52 787.92 433.88 C 781.95 431.53 777.24 429.42 777.46 429.21 C 777.68 428.99 782.05 430.03 787.18 431.52 C 840.82 447.13 888.68 483.14 918.74 530.5 C 929.16 546.91 936.41 562.26 943.55 583.01 L 947 593.04 L 944.36 603.77 C 942.91 609.67 941.45 614.81 941.11 615.19 C 940.78 615.57 938.79 609.72 936.7 602.19 Z" fill="rgb(97,162,203)"/>
    <path d="M 0.00 501.50 L 0.00 0.00 L 523.00 0.00 L 1046.00 0.00 L 1046.00 501.50 L 1046.00 1003.00 L 523.00 1003.00 L 0.00 1003.00 L 0.00 501.50 ZM 571.50 964.57 C713.13,948.95 837.90,872.01 916.20,752.00 C928.58,733.04 934.19,723.03 944.91,700.83 C968.31,652.35 981.66,605.91 988.55,549.00 C990.76,530.77 991.58,485.78 990.07,466.00 C979.39,326.40 911.80,204.34 798.39,119.85 C697.78,44.90 568.10,14.58 442.02,36.54 C312.42,59.12 196.50,137.96 124.90,252.23 C113.49,270.44 95.08,307.02 87.26,327.00 C71.91,366.25 63.26,401.07 57.43,447.00 C55.24,464.29 54.39,512.56 55.93,532.70 C63.39,630.48 100.00,721.20 162.47,796.66 C174.28,810.92 199.41,836.58 214.85,850.14 C262.21,891.73 315.89,922.59 375.67,942.60 C411.76,954.68 454.19,963.19 492.00,965.94 C509.37,967.21 554.68,966.42 571.50,964.57 ZM 401.50 836.91 C285.62,827.56 183.62,761.37 128.07,659.50 C85.80,581.97 76.66,486.30 102.15,388.06 C122.91,308.08 169.59,231.34 230.75,176.66 C283.40,129.59 338.63,98.84 405.00,79.65 C467.60,61.55 539.20,58.25 602.50,70.55 C677.55,85.12 743.13,116.12 801.01,164.39 C813.69,174.96 838.62,198.46 842.94,203.92 C845.94,207.72 845.52,207.53 832.28,199.24 C782.24,167.89 728.29,148.43 671.59,141.29 C655.14,139.22 610.70,138.97 594.00,140.86 C499.54,151.53 416.15,199.48 368.54,270.50 C356.81,287.99 338.73,327.69 338.73,335.94 C338.73,338.02 339.57,341.15 340.59,342.89 C342.98,346.93 350.02,350.45 354.11,349.63 C355.76,349.30 362.37,345.51 368.81,341.21 C393.49,324.72 421.34,311.17 450.46,301.49 C485.68,289.79 520.55,284.95 553.98,287.12 C562.49,287.67 569.64,288.31 569.86,288.53 C570.08,288.75 566.33,292.87 561.52,297.68 C546.16,313.04 535.46,328.15 524.59,349.82 C520.22,358.53 519.00,361.98 519.00,365.58 C519.00,373.20 524.71,379.00 532.20,379.00 C534.02,379.00 539.73,377.17 544.89,374.94 C590.95,355.07 646.53,360.96 684.45,389.71 C689.37,393.45 693.57,397.06 693.78,397.75 C694.04,398.60 692.96,399.00 690.45,399.00 C673.26,399.00 616.16,417.75 610.92,425.12 C607.78,429.52 607.45,434.00 609.91,438.82 C613.33,445.53 615.85,446.32 636.50,447.11 C657.24,447.91 668.97,449.99 686.11,455.91 C713.60,465.41 734.30,477.97 755.13,497.79 L 764.00 506.23 L 763.99 513.36 C763.96,530.06 759.81,559.64 754.49,581.00 C734.10,662.83 683.16,734.25 611.50,781.49 C594.15,792.93 581.69,799.81 563.00,808.25 C512.86,830.90 454.75,841.21 401.50,836.91 ZM 368.18 786.33 C374.20,780.56 374.06,771.75 367.86,766.53 C365.52,764.57 363.73,764.00 359.91,764.00 C355.68,764.00 354.43,764.49 351.24,767.42 C347.79,770.58 347.50,771.27 347.50,776.34 C347.50,780.82 347.97,782.34 350.00,784.55 C355.54,790.55 363.01,791.28 368.18,786.33 ZM 610.37 717.93 C615.35,714.01 612.75,705.00 606.63,705.00 C602.92,705.00 599.00,708.66 599.00,712.12 C599.00,715.53 602.87,720.00 605.82,720.00 C606.87,720.00 608.92,719.07 610.37,717.93 ZM 507.67 708.83 C510.67,706.03 511.29,702.64 509.57,698.50 C507.07,692.53 499.71,691.48 495.06,696.43 C493.36,698.24 492.94,699.73 493.19,703.10 C493.45,706.77 494.03,707.79 496.97,709.77 C500.90,712.41 504.14,712.12 507.67,708.83 ZM 439.62 680.46 C457.88,677.29 470.54,672.24 485.76,662.05 C519.35,639.56 538.75,601.07 536.69,561.06 C534.78,523.95 515.66,490.68 484.21,469.69 C447.22,445.02 396.07,445.41 357.69,470.66 C349.53,476.03 335.84,488.83 329.54,497.00 C307.31,525.80 300.15,567.45 311.57,601.50 C317.26,618.45 325.70,632.50 337.90,645.33 C364.59,673.40 403.28,686.76 439.62,680.46 ZM 204.60 673.60 C208.31,669.89 208.77,667.40 206.55,663.09 C202.51,655.28 190.00,658.04 190.00,666.74 C190.00,671.10 191.37,673.59 194.78,675.44 C198.91,677.69 200.88,677.32 204.60,673.60 ZM 645.00 572.00 C649.39,567.61 646.42,561.00 640.04,561.00 C635.42,561.00 634.00,562.45 634.00,567.14 C634.00,573.33 640.71,576.29 645.00,572.00 ZM 224.36 520.62 C230.44,518.08 234.15,510.71 232.55,504.35 C232.18,502.88 230.38,500.18 228.54,498.34 C225.67,495.47 224.52,495.00 220.35,495.00 C214.16,495.01 209.38,497.84 207.34,502.72 C204.41,509.73 207.29,516.87 214.33,520.06 C219.36,522.34 220.13,522.39 224.36,520.62 ZM 358.08 431.08 C361.65,427.50 361.99,422.53 358.93,418.63 C356.04,414.97 349.04,414.87 345.45,418.45 C340.12,423.78 344.43,434.00 352.00,434.00 C354.15,434.00 356.08,433.07 358.08,431.08 ZM 568.38 408.70 C570.30,406.13 570.34,405.70 568.95,403.20 C567.03,399.77 560.37,398.78 558.29,401.62 C556.25,404.41 556.71,408.68 559.25,410.48 C562.38,412.69 565.93,412.00 568.38,408.70 ZM 165.08 330.08 C168.53,326.63 168.80,323.29 165.93,319.63 C161.72,314.28 152.00,317.18 152.00,323.78 C152.00,328.42 156.14,332.71 160.83,332.94 C161.56,332.97 163.47,331.68 165.08,330.08 ZM 277.32 252.88 C280.91,251.04 282.95,247.73 282.98,243.68 C283.01,238.58 281.53,236.12 277.41,234.40 C273.40,232.72 269.46,233.39 266.27,236.29 C258.36,243.47 267.85,257.72 277.32,252.88 ZM 424.55 112.55 C429.10,107.99 426.59,102.00 420.14,102.00 C415.42,102.00 414.00,103.42 414.00,108.14 C414.00,114.59 419.99,117.10 424.55,112.55 Z" style="fill: rgb(255, 255, 255); fill-opacity: 0;"/>
    <ellipse style="stroke: rgb(0, 0, 0); fill: rgb(221, 195, 113);" cx="420.475" cy="565.347" rx="92.15" ry="93.543"/>
  </g>
</svg>